<svg id="visual" viewBox="0 0 1034 667" width="1034" height="667" xmlns="http://www.w3.org/2000/svg" xmlns:xlink="http://www.w3.org/1999/xlink" version="1.1"><g stroke-width="1" stroke-linejoin="bevel"><path d="M475.6 336.5L560.4 250.3L494.6 248.3Z" fill="#8154e1" stroke="#8154e1"></path><path d="M475.6 336.5L608.4 333.5L560.4 250.3Z" fill="#6026da" stroke="#6026da"></path><path d="M475.6 336.5L492.6 436.7L608.4 333.5Z" fill="#723fde" stroke="#723fde"></path><path d="M682.3 456.7L662.3 340.5L608.4 333.5Z" fill="#6c37dd" stroke="#6c37dd"></path><path d="M608.4 333.5L714.3 248.3L560.4 250.3Z" fill="#6026da" stroke="#6026da"></path><path d="M492.6 436.7L596.4 476.7L608.4 333.5Z" fill="#865be2" stroke="#865be2"></path><path d="M795.2 331.5L714.3 248.3L662.3 340.5Z" fill="#7c4de0" stroke="#7c4de0"></path><path d="M662.3 340.5L714.3 248.3L608.4 333.5Z" fill="#662fdc" stroke="#662fdc"></path><path d="M560.4 250.3L594.4 87.2L494.6 248.3Z" fill="#9068e3" stroke="#9068e3"></path><path d="M327.7 244.3L327.7 327.5L475.6 336.5Z" fill="#6c37dd" stroke="#6c37dd"></path><path d="M475.6 336.5L343.7 471.7L492.6 436.7Z" fill="#8154e1" stroke="#8154e1"></path><path d="M374.7 103.2L327.7 244.3L494.6 248.3Z" fill="#662fdc" stroke="#662fdc"></path><path d="M494.6 248.3L327.7 244.3L475.6 336.5Z" fill="#5a1bd9" stroke="#5a1bd9"></path><path d="M596.4 476.7L682.3 456.7L608.4 333.5Z" fill="#7c4de0" stroke="#7c4de0"></path><path d="M672.3 126.2L594.4 87.2L560.4 250.3Z" fill="#9068e3" stroke="#9068e3"></path><path d="M714.3 248.3L672.3 126.2L560.4 250.3Z" fill="#5a1bd9" stroke="#5a1bd9"></path><path d="M594.4 87.2L462.6 76.2L494.6 248.3Z" fill="#6026da" stroke="#6026da"></path><path d="M462.6 76.2L374.7 103.2L494.6 248.3Z" fill="#723fde" stroke="#723fde"></path><path d="M327.7 327.5L343.7 471.7L475.6 336.5Z" fill="#7746df" stroke="#7746df"></path><path d="M492.6 436.7L572.4 580.8L596.4 476.7Z" fill="#723fde" stroke="#723fde"></path><path d="M682.3 456.7L795.2 331.5L662.3 340.5Z" fill="#7c4de0" stroke="#7c4de0"></path><path d="M714.3 248.3L787.2 191.3L672.3 126.2Z" fill="#865be2" stroke="#865be2"></path><path d="M430.6 585.8L572.4 580.8L492.6 436.7Z" fill="#6026da" stroke="#6026da"></path><path d="M596.4 476.7L665.3 549.8L682.3 456.7Z" fill="#8b61e2" stroke="#8b61e2"></path><path d="M682.3 456.7L834.2 425.7L795.2 331.5Z" fill="#6026da" stroke="#6026da"></path><path d="M795.2 331.5L787.2 191.3L714.3 248.3Z" fill="#8154e1" stroke="#8154e1"></path><path d="M572.4 580.8L665.3 549.8L596.4 476.7Z" fill="#8b61e2" stroke="#8b61e2"></path><path d="M374.7 103.2L246.8 231.3L327.7 244.3Z" fill="#8154e1" stroke="#8154e1"></path><path d="M327.7 244.3L246.8 231.3L327.7 327.5Z" fill="#865be2" stroke="#865be2"></path><path d="M327.7 327.5L248.8 478.7L343.7 471.7Z" fill="#6c37dd" stroke="#6c37dd"></path><path d="M343.7 471.7L430.6 585.8L492.6 436.7Z" fill="#9068e3" stroke="#9068e3"></path><path d="M707.3 0L543.4 0L594.4 87.2Z" fill="#8154e1" stroke="#8154e1"></path><path d="M594.4 87.2L543.4 0L462.6 76.2Z" fill="#8154e1" stroke="#8154e1"></path><path d="M462.6 76.2L450.6 0L374.7 103.2Z" fill="#723fde" stroke="#723fde"></path><path d="M707.3 0L594.4 87.2L672.3 126.2Z" fill="#662fdc" stroke="#662fdc"></path><path d="M543.4 0L450.6 0L462.6 76.2Z" fill="#7746df" stroke="#7746df"></path><path d="M374.7 103.2L194.8 126.2L246.8 231.3Z" fill="#8154e1" stroke="#8154e1"></path><path d="M246.8 231.3L213.8 309.5L327.7 327.5Z" fill="#723fde" stroke="#723fde"></path><path d="M343.7 471.7L365.7 587.8L430.6 585.8Z" fill="#6026da" stroke="#6026da"></path><path d="M247.8 570.8L365.7 587.8L343.7 471.7Z" fill="#6026da" stroke="#6026da"></path><path d="M213.8 309.5L248.8 478.7L327.7 327.5Z" fill="#9068e3" stroke="#9068e3"></path><path d="M828.2 533.8L834.2 425.7L682.3 456.7Z" fill="#7746df" stroke="#7746df"></path><path d="M942.1 211.3L883.1 145.2L787.2 191.3Z" fill="#6c37dd" stroke="#6c37dd"></path><path d="M883.1 145.2L800.2 104.2L787.2 191.3Z" fill="#5a1bd9" stroke="#5a1bd9"></path><path d="M787.2 191.3L800.2 104.2L672.3 126.2Z" fill="#8b61e2" stroke="#8b61e2"></path><path d="M450.6 0L356.7 0L374.7 103.2Z" fill="#7746df" stroke="#7746df"></path><path d="M800.2 104.2L707.3 0L672.3 126.2Z" fill="#865be2" stroke="#865be2"></path><path d="M430.6 585.8L545.4 667L572.4 580.8Z" fill="#723fde" stroke="#723fde"></path><path d="M572.4 580.8L691.3 667L665.3 549.8Z" fill="#5a1bd9" stroke="#5a1bd9"></path><path d="M665.3 549.8L828.2 533.8L682.3 456.7Z" fill="#7c4de0" stroke="#7c4de0"></path><path d="M450.6 667L545.4 667L430.6 585.8Z" fill="#5a1bd9" stroke="#5a1bd9"></path><path d="M365.7 587.8L450.6 667L430.6 585.8Z" fill="#865be2" stroke="#865be2"></path><path d="M241.8 0L194.8 126.2L374.7 103.2Z" fill="#8154e1" stroke="#8154e1"></path><path d="M246.8 231.3L148.9 251.3L213.8 309.5Z" fill="#7746df" stroke="#7746df"></path><path d="M194.8 126.2L148.9 251.3L246.8 231.3Z" fill="#6026da" stroke="#6026da"></path><path d="M213.8 309.5L120.9 458.7L248.8 478.7Z" fill="#6026da" stroke="#6026da"></path><path d="M797.2 667L828.2 533.8L665.3 549.8Z" fill="#6c37dd" stroke="#6c37dd"></path><path d="M248.8 478.7L247.8 570.8L343.7 471.7Z" fill="#8154e1" stroke="#8154e1"></path><path d="M365.7 587.8L339.7 667L450.6 667Z" fill="#5a1bd9" stroke="#5a1bd9"></path><path d="M95.9 529.8L247.8 570.8L248.8 478.7Z" fill="#662fdc" stroke="#662fdc"></path><path d="M918.1 300.5L787.2 191.3L795.2 331.5Z" fill="#865be2" stroke="#865be2"></path><path d="M800.2 104.2L774.2 0L707.3 0Z" fill="#723fde" stroke="#723fde"></path><path d="M918.1 300.5L795.2 331.5L834.2 425.7Z" fill="#6026da" stroke="#6026da"></path><path d="M910.1 0L774.2 0L800.2 104.2Z" fill="#662fdc" stroke="#662fdc"></path><path d="M912.1 458.7L918.1 300.5L834.2 425.7Z" fill="#865be2" stroke="#865be2"></path><path d="M545.4 667L691.3 667L572.4 580.8Z" fill="#9068e3" stroke="#9068e3"></path><path d="M247.8 570.8L339.7 667L365.7 587.8Z" fill="#8b61e2" stroke="#8b61e2"></path><path d="M356.7 0L241.8 0L374.7 103.2Z" fill="#7c4de0" stroke="#7c4de0"></path><path d="M922.1 587.8L912.1 458.7L828.2 533.8Z" fill="#6026da" stroke="#6026da"></path><path d="M828.2 533.8L912.1 458.7L834.2 425.7Z" fill="#723fde" stroke="#723fde"></path><path d="M0 341.5L108.9 343.5L0 234.3Z" fill="#5a1bd9" stroke="#5a1bd9"></path><path d="M148.9 251.3L108.9 343.5L213.8 309.5Z" fill="#7746df" stroke="#7746df"></path><path d="M79.9 119.2L148.9 251.3L194.8 126.2Z" fill="#6c37dd" stroke="#6c37dd"></path><path d="M1034 344.5L942.1 211.3L918.1 300.5Z" fill="#865be2" stroke="#865be2"></path><path d="M918.1 300.5L942.1 211.3L787.2 191.3Z" fill="#865be2" stroke="#865be2"></path><path d="M883.1 145.2L910.1 0L800.2 104.2Z" fill="#6026da" stroke="#6026da"></path><path d="M108.9 343.5L120.9 458.7L213.8 309.5Z" fill="#6026da" stroke="#6026da"></path><path d="M247.8 570.8L242.8 667L339.7 667Z" fill="#662fdc" stroke="#662fdc"></path><path d="M691.3 667L797.2 667L665.3 549.8Z" fill="#6c37dd" stroke="#6c37dd"></path><path d="M113.9 667L242.8 667L247.8 570.8Z" fill="#662fdc" stroke="#662fdc"></path><path d="M99.9 0L79.9 119.2L194.8 126.2Z" fill="#7746df" stroke="#7746df"></path><path d="M0 438.7L95.9 529.8L120.9 458.7Z" fill="#662fdc" stroke="#662fdc"></path><path d="M0 438.7L120.9 458.7L108.9 343.5Z" fill="#6c37dd" stroke="#6c37dd"></path><path d="M120.9 458.7L95.9 529.8L248.8 478.7Z" fill="#865be2" stroke="#865be2"></path><path d="M1034 76.2L910.1 0L883.1 145.2Z" fill="#5a1bd9" stroke="#5a1bd9"></path><path d="M797.2 667L922.1 587.8L828.2 533.8Z" fill="#662fdc" stroke="#662fdc"></path><path d="M912.1 458.7L1034 344.5L918.1 300.5Z" fill="#7c4de0" stroke="#7c4de0"></path><path d="M1034 448.7L1034 344.5L912.1 458.7Z" fill="#5a1bd9" stroke="#5a1bd9"></path><path d="M942.1 211.3L1034 76.2L883.1 145.2Z" fill="#865be2" stroke="#865be2"></path><path d="M1034 344.5L1034 200.3L942.1 211.3Z" fill="#7746df" stroke="#7746df"></path><path d="M241.8 0L99.9 0L194.8 126.2Z" fill="#865be2" stroke="#865be2"></path><path d="M0 234.3L108.9 343.5L148.9 251.3Z" fill="#7c4de0" stroke="#7c4de0"></path><path d="M0 234.3L148.9 251.3L79.9 119.2Z" fill="#6026da" stroke="#6026da"></path><path d="M1034 527.8L1034 448.7L912.1 458.7Z" fill="#7746df" stroke="#7746df"></path><path d="M0 85.2L0 234.3L79.9 119.2Z" fill="#5a1bd9" stroke="#5a1bd9"></path><path d="M0 341.5L0 438.7L108.9 343.5Z" fill="#7c4de0" stroke="#7c4de0"></path><path d="M95.9 529.8L113.9 667L247.8 570.8Z" fill="#6c37dd" stroke="#6c37dd"></path><path d="M0 667L113.9 667L95.9 529.8Z" fill="#7c4de0" stroke="#7c4de0"></path><path d="M797.2 667L941.1 667L922.1 587.8Z" fill="#865be2" stroke="#865be2"></path><path d="M922.1 587.8L1034 527.8L912.1 458.7Z" fill="#8154e1" stroke="#8154e1"></path><path d="M1034 200.3L1034 76.2L942.1 211.3Z" fill="#8b61e2" stroke="#8b61e2"></path><path d="M1034 667L1034 527.8L922.1 587.8Z" fill="#9068e3" stroke="#9068e3"></path><path d="M99.9 0L0 85.2L79.9 119.2Z" fill="#6c37dd" stroke="#6c37dd"></path><path d="M0 438.7L0 537.8L95.9 529.8Z" fill="#5a1bd9" stroke="#5a1bd9"></path><path d="M1034 76.2L1034 0L910.1 0Z" fill="#662fdc" stroke="#662fdc"></path><path d="M99.9 0L0 0L0 85.2Z" fill="#8b61e2" stroke="#8b61e2"></path><path d="M941.1 667L1034 667L922.1 587.8Z" fill="#7c4de0" stroke="#7c4de0"></path><path d="M0 537.8L0 667L95.9 529.8Z" fill="#9068e3" stroke="#9068e3"></path></g></svg>